<svg width="28" height="30" viewBox="0 0 28 30" fill="none" xmlns="http://www.w3.org/2000/svg">
<g filter="url(#filter0_d_14_3)">
<path fill-rule="evenodd" clip-rule="evenodd" d="M12.5 2C11.1446 2.00012 9.80887 2.32436 8.60427 2.94569C7.39966 3.56702 6.3611 4.46742 5.57525 5.57175C4.78939 6.67609 4.27902 7.95235 4.08672 9.29404C3.89442 10.6357 4.02576 12.004 4.46979 13.2846C4.91382 14.5652 5.65766 15.7211 6.63925 16.6557C7.62084 17.5904 8.81171 18.2768 10.1125 18.6576C11.4133 19.0384 12.7864 19.1026 14.117 18.8449C15.4477 18.5872 16.6975 18.015 17.762 17.176L21.414 20.828C21.6026 21.0102 21.8552 21.111 22.1174 21.1087C22.3796 21.1064 22.6304 21.0012 22.8158 20.8158C23.0012 20.6304 23.1064 20.3796 23.1087 20.1174C23.111 19.8552 23.0102 19.6026 22.828 19.414L19.176 15.762C20.164 14.5086 20.7792 13.0024 20.9511 11.4157C21.123 9.82905 20.8448 8.22602 20.1482 6.79009C19.4517 5.35417 18.3649 4.14336 17.0123 3.29623C15.6597 2.44911 14.096 1.99989 12.5 2ZM6.00001 10.5C6.00001 8.77609 6.68483 7.12279 7.90382 5.90381C9.1228 4.68482 10.7761 4 12.5 4C14.2239 4 15.8772 4.68482 17.0962 5.90381C18.3152 7.12279 19 8.77609 19 10.5C19 12.2239 18.3152 13.8772 17.0962 15.0962C15.8772 16.3152 14.2239 17 12.5 17C10.7761 17 9.1228 16.3152 7.90382 15.0962C6.68483 13.8772 6.00001 12.2239 6.00001 10.5Z" fill="white"/>
</g>
<defs>
<filter id="filter0_d_14_3" x="-2" y="0" width="32" height="32" filterUnits="userSpaceOnUse" color-interpolation-filters="sRGB">
<feFlood flood-opacity="0" result="BackgroundImageFix"/>
<feColorMatrix in="SourceAlpha" type="matrix" values="0 0 0 0 0 0 0 0 0 0 0 0 0 0 0 0 0 0 127 0" result="hardAlpha"/>
<feOffset dy="4"/>
<feGaussianBlur stdDeviation="2"/>
<feComposite in2="hardAlpha" operator="out"/>
<feColorMatrix type="matrix" values="0 0 0 0 0 0 0 0 0 0 0 0 0 0 0 0 0 0 0.25 0"/>
<feBlend mode="normal" in2="BackgroundImageFix" result="effect1_dropShadow_14_3"/>
<feBlend mode="normal" in="SourceGraphic" in2="effect1_dropShadow_14_3" result="shape"/>
</filter>
</defs>
</svg>
